#!OML:ASF X:\2005_08_12_Meinard\c3d\meinard.ASF
:FULLY-SPECIFIED
:DEGREES
3106
root 3.57583 16.5496 0.446649 485.595 -86.4881 -507.028
lowerback 33.662 -0.663413 -0.232281
upperback 3.37958 -1.37764 0.405983
thorax -13.5193 -0.804473 1.18279
lowerneck -12.4089 -2.83257 -5.47909
upperneck 2.70574 -3.4857 7.66623
head 3.0445 -1.49722 3.00429
rclavicle 5.9946e-015 -1.88845e-015
rhumerus -4.97384 -47.7252 -3.12349
rradius 11.1236
rwrist 47.5498
rhand 1.69046 -14.969
rfingers 7.12502
rthumb 27.2085 -43.0269
lclavicle 5.9946e-015 -1.88845e-015
lhumerus -11.0578 70.5148 -1084.37
lradius 23.1231
lwrist 834.111
lhand -7.23697 -0.330554
lfingers 7.12502
lthumb 18.6429 28.7961
rfemur -171.019 -180.02 197.842
rtibia 36.745
rfoot 159.404 163.034
rtoes 7.75423
lfemur -174.461 184.316 -197.53
ltibia 42.1195
lfoot -20.1237 25.748
ltoes 12.9029
3107
root 3.56747 16.5506 0.433025 484.461 -86.5615 -505.865
lowerback 33.6071 -0.70495 -0.224223
upperback 3.34076 -1.42152 0.415633
thorax -13.5409 -0.821838 1.20637
lowerneck -12.3432 -2.81598 -5.42394
upperneck 2.68335 -3.4736 7.66482
head 3.02557 -1.4922 2.99628
rclavicle 3.45078e-015 4.77083e-015
rhumerus -5.18968 -47.5579 -3.02996
rradius 11.2134
rwrist 47.3196
rhand 1.77081 -14.9706
rfingers 7.12502
rthumb 27.2854 -43.0165
lclavicle 3.45078e-015 4.77083e-015
lhumerus -11.3429 70.2834 -1084.59
lradius 23.1003
lwrist 834.227
lhand -7.26651 -0.350099
lfingers 7.12502
lthumb 18.6145 28.7793
rfemur -170.981 -179.978 197.903
rtibia 36.7262
rfoot 159.357 162.944
rtoes 7.71268
lfemur -174.463 184.402 -197.496
ltibia 42.1112
lfoot -20.1347 25.7175
ltoes 12.9667
3108
root 3.55885 16.5513 0.419942 483.532 -86.6173 -504.923
lowerback 33.5611 -0.729116 -0.210401
upperback 3.31493 -1.44215 0.426765
thorax -13.5516 -0.829838 1.21887
lowerneck -12.3318 -2.82539 -5.433
upperneck 2.68036 -3.49025 7.73245
head 3.0257 -1.49822 3.01751
rclavicle 3.37313e-015 -1.72943e-014
rhumerus -5.44889 -47.4505 -2.8875
rradius 11.2913
rwrist 47.1732
rhand 1.82966 -14.9549
rfingers 7.12502
rthumb 27.3417 -42.9919
lclavicle 3.37313e-015 -1.72943e-014
lhumerus -11.5447 70.1567 -1084.72
lradius 23.1029
lwrist 834.29
lhand -7.32787 -0.297804
lfingers 7.12502
lthumb 18.5555 28.8372
rfemur -170.934 -179.927 197.956
rtibia 36.7093
rfoot 159.332 162.878
rtoes 7.71105
lfemur -174.44 184.514 -197.483
ltibia 42.0989
lfoot -20.1481 25.7483
ltoes 13.0223
3109
root 3.55063 16.5527 0.40668 482.367 -86.6729 -503.722
lowerback 33.4904 -0.762598 -0.199073
upperback 3.28995 -1.47461 0.442205
thorax -13.5508 -0.842853 1.2417
lowerneck -12.2895 -2.81681 -5.39221
upperneck 2.64603 -3.48656 7.74798
head 3.00809 -1.49671 3.01631
rclavicle -6.05051e-015 1.73937e-014
rhumerus -5.66144 -47.3313 -2.78039
rradius 11.333
rwrist 47.0072
rhand 1.81657 -14.9292
rfingers 7.12502
rthumb 27.3291 -42.9681
lclavicle -6.05051e-015 1.73937e-014
lhumerus -11.7928 69.9542 -1084.9
lradius 23.0981
lwrist 834.388
lhand -7.41352 -0.296708
lfingers 7.12502
lthumb 18.4731 28.8461
rfemur -170.913 -179.892 198.027
rtibia 36.688
rfoot 159.296 162.789
rtoes 7.59747
lfemur -174.451 184.615 -197.445
ltibia 42.0932
lfoot -20.1656 25.7351
ltoes 13.0588
3110
root 3.54206 16.5535 0.394245 481.308 -86.7183 -502.64
lowerback 33.4349 -0.794252 -0.172869
upperback 3.26074 -1.50131 0.444005
thorax -13.5618 -0.854187 1.23976
lowerneck -12.2416 -2.80782 -5.33793
upperneck 2.6166 -3.48708 7.79252
head 2.9918 -1.49614 3.02157
rclavicle -2.30311e-014 9.93923e-015
rhumerus -5.8814 -47.2236 -2.66412
rradius 11.3345
rwrist 46.8833
rhand 1.75765 -14.8696
rfingers 7.12502
rthumb 27.2728 -42.9175
lclavicle -2.30311e-014 9.93923e-015
lhumerus -11.9387 69.85 -1084.99
lradius 23.1107
lwrist 834.326
lhand -7.54664 -0.273834
lfingers 7.12502
lthumb 18.345 28.8811
rfemur -170.873 -179.875 198.099
rtibia 36.6699
rfoot 159.25 162.702
rtoes 7.54595
lfemur -174.442 184.705 -197.414
ltibia 42.086
lfoot -20.1593 25.7384
ltoes 13.1482
3111
root 3.53409 16.5544 0.381748 480.017 -86.7718 -501.321
lowerback 33.383 -0.830637 -0.171943
upperback 3.23218 -1.54012 0.469564
thorax -13.5721 -0.869259 1.28215
lowerneck -12.201 -2.79178 -5.33945
upperneck 2.59017 -3.4703 7.85304
head 2.97772 -1.48674 3.04191
rclavicle 1.84155e-014 3.8763e-015
rhumerus -6.00899 -47.0818 -2.58756
rradius 11.29
rwrist 46.7839
rhand 1.67624 -14.8239
rfingers 7.12502
rthumb 27.1949 -42.8839
lclavicle 1.84155e-014 3.8763e-015
lhumerus -12.2413 69.7973 -1085.2
lradius 23.1442
lwrist 834.231
lhand -7.65112 -0.265591
lfingers 7.12502
lthumb 18.2445 28.8988
rfemur -170.841 -179.842 198.174
rtibia 36.6522
rfoot 159.213 162.606
rtoes 7.46943
lfemur -174.452 184.795 -197.375
ltibia 42.0816
lfoot -20.1609 25.7327
ltoes 13.2144
3112
root 3.52557 16.5548 0.369806 478.761 -86.8178 -500.059
lowerback 33.342 -0.862563 -0.15414
upperback 3.21488 -1.57094 0.476644
thorax -13.5749 -0.882617 1.29222
lowerneck -12.1874 -2.78009 -5.26739
upperneck 2.57749 -3.46848 7.88376
head 2.97117 -1.48456 3.03987
rclavicle 7.17488e-016 1.26228e-014
rhumerus -6.1889 -46.8961 -2.46916
rradius 11.2171
rwrist 46.6292
rhand 1.53712 -14.7392
rfingers 7.12502
rthumb 27.0618 -42.82
lclavicle 7.17488e-016 1.26228e-014
lhumerus -12.3895 69.7314 -1085.29
lradius 23.1661
lwrist 834.142
lhand -7.80503 -0.276979
lfingers 7.12502
lthumb 18.0964 28.9012
rfemur -170.789 -179.818 198.244
rtibia 36.6372
rfoot 159.183 162.521
rtoes 7.49195
lfemur -174.434 184.888 -197.34
ltibia 42.0783
lfoot -20.1742 25.727
ltoes 13.2759
3113
root 3.51766 16.5555 0.357709 477.49 -86.8812 -498.767
lowerback 33.3032 -0.89144 -0.162201
upperback 3.18345 -1.60509 0.490743
thorax -13.594 -0.895238 1.32544
lowerneck -12.1236 -2.76901 -5.22759
upperneck 2.53919 -3.46465 7.93945
head 2.9499 -1.48208 3.05132
rclavicle 2.25496e-014 -6.16232e-015
rhumerus -6.31354 -46.711 -2.37504
rradius 11.1145
rwrist 46.4423
rhand 1.37383 -14.6902
rfingers 7.12502
rthumb 26.9056 -42.7952
lclavicle 2.25496e-014 -6.16232e-015
lhumerus -12.5865 69.6192 -1085.42
lradius 23.1835
lwrist 834.102
lhand -7.91598 -0.281688
lfingers 7.12502
lthumb 17.9897 28.9063
rfemur -170.751 -179.78 198.299
rtibia 36.6223
rfoot 159.132 162.425
rtoes 7.42009
lfemur -174.442 184.951 -197.307
ltibia 42.0779
lfoot -20.1667 25.6941
ltoes 13.3737
3114
root 3.50955 16.5552 0.346508 476.127 -86.9247 -497.391
lowerback 33.2592 -0.926231 -0.150056
upperback 3.16798 -1.64102 0.503547
thorax -13.593 -0.910592 1.34672
lowerneck -12.0923 -2.74812 -5.19434
upperneck 2.50374 -3.44621 8.00078
head 2.93393 -1.47165 3.06627
rclavicle 1.76546e-014 2.18663e-015
rhumerus -6.45072 -46.447 -2.2938
rradius 11.0431
rwrist 46.2021
rhand 1.23344 -14.6397
rfingers 7.12502
rthumb 26.7713 -42.7653
lclavicle 1.76546e-014 2.18663e-015
lhumerus -12.7924 69.5156 -1085.57
lradius 23.2104
lwrist 834.035
lhand -8.0361 -0.294792
lfingers 7.12502
lthumb 17.8741 28.9038
rfemur -170.705 -179.728 198.356
rtibia 36.6075
rfoot 159.105 162.363
rtoes 7.46809
lfemur -174.434 185.045 -197.274
ltibia 42.0782
lfoot -20.1782 25.6889
ltoes 13.437
3115
root 3.50128 16.5558 0.335311 474.775 -86.9537 -496.025
lowerback 33.2157 -0.960165 -0.136137
upperback 3.14615 -1.67382 0.522872
thorax -13.5995 -0.924212 1.37292
lowerneck -12.0421 -2.73098 -5.16855
upperneck 2.46982 -3.43254 8.06732
head 2.91597 -1.46381 3.08385
rclavicle 2.08103e-015 -4.27387e-015
rhumerus -6.55571 -46.2211 -2.2238
rradius 10.9682
rwrist 45.9653
rhand 1.07155 -14.6052
rfingers 7.12502
rthumb 26.6163 -42.7545
lclavicle 2.08103e-015 -4.27387e-015
lhumerus -13.0116 69.3737 -1085.75
lradius 23.1822
lwrist 834.018
lhand -8.08672 -0.320283
lfingers 7.12502
lthumb 17.8254 28.8828
rfemur -170.667 -179.733 198.447
rtibia 36.5956
rfoot 159.064 162.251
rtoes 7.36278
lfemur -174.431 185.092 -197.214
ltibia 42.0781
lfoot -20.1767 25.6544
ltoes 13.5392
